<svg preserveAspectRatio="none" width="100%" height="100%" overflow="visible" style="display: block;" viewBox="0 0 47.8424 41.8561" fill="none" xmlns="http://www.w3.org/2000/svg">
<path id="Vector" d="M45.7101 25.9486C44.8215 27.0562 43.6903 27.953 42.4007 28.5725C41.1111 29.192 39.6961 29.5183 38.2606 29.5272H21.3761C20.6578 29.5272 19.9684 29.805 19.457 30.3007C18.9457 30.7963 18.6536 31.4698 18.644 32.1754V38.0265L20.6111 35.1278C20.7535 34.9542 20.9567 34.839 21.1809 34.8049C21.4051 34.7707 21.6343 34.8201 21.8234 34.9432C22.0126 35.0664 22.1481 35.2544 22.2035 35.4706C22.259 35.6867 22.2302 35.9154 22.1229 36.1119L18.4801 41.4798C18.4049 41.5898 18.3052 41.6815 18.1887 41.7482C18.0641 41.8189 17.9228 41.8561 17.7789 41.8561C17.635 41.8561 17.4937 41.8189 17.3691 41.7482C17.2855 41.6951 17.2117 41.6285 17.1505 41.5514L13.5077 36.1835C13.4004 35.987 13.3717 35.7583 13.4271 35.5422C13.4825 35.326 13.618 35.1379 13.8071 35.0148C13.9963 34.8916 14.2254 34.8423 14.4497 34.8764C14.6739 34.9106 14.8771 35.0258 15.0194 35.1994L16.8226 38.0443V32.1754C16.8195 31.583 16.9371 30.996 17.1687 30.449C17.4001 29.902 17.7408 29.4061 18.1705 28.9904C18.5944 28.5793 19.0984 28.2564 19.6524 28.0412C20.2063 27.826 20.7989 27.7228 21.3944 27.7379H38.2606C39.4194 27.7402 40.5641 27.4875 41.6106 26.9983C42.6569 26.509 43.5786 25.7958 44.3076 24.9108C45.04 24.0159 45.5592 22.9712 45.827 21.8535C46.0949 20.7358 46.1048 19.5733 45.8558 18.4514C45.4438 16.5787 44.3159 14.9326 42.7048 13.8529C41.5325 13.0616 40.1611 12.603 38.7409 12.5272C37.3207 12.4515 35.9067 12.7616 34.6542 13.4234C34.1861 16.3948 32.5596 19.0707 30.1189 20.8849C30.0232 20.9554 29.9143 21.0066 29.7985 21.0358C29.6826 21.0649 29.5621 21.0714 29.4437 21.0548C29.3252 21.0382 29.2113 20.9989 29.1085 20.939C29.0056 20.8791 28.9156 20.7999 28.8439 20.7059C28.7721 20.6119 28.7199 20.505 28.6903 20.3912C28.6606 20.2774 28.654 20.159 28.6709 20.0426C28.6878 19.9263 28.7279 19.8144 28.7888 19.7134C28.8497 19.6122 28.9304 19.5239 29.026 19.4534C30.1073 18.6513 31.0106 17.641 31.6808 16.4842C32.351 15.3274 32.7739 14.0485 32.9238 12.7256C32.9485 12.3682 32.9485 12.0095 32.9238 11.652C32.9588 9.66422 32.3642 7.71491 31.2221 6.07364C30.08 4.43239 28.447 3.18036 26.549 2.49077C25.0156 1.93527 23.3683 1.75254 21.7476 1.95818C20.1268 2.16383 18.5808 2.75174 17.2415 3.67172C15.9728 4.58973 14.9433 5.78982 14.2374 7.17376C13.5314 8.55773 13.169 10.0862 13.1798 11.6342C13.2086 11.7911 13.1989 11.9525 13.1513 12.105C13.1038 12.2575 13.0199 12.3967 12.9066 12.5109C12.7977 12.6218 12.6625 12.7043 12.513 12.7511C12.3636 12.7981 12.2047 12.8077 12.0506 12.7793C11.0471 12.496 9.99571 12.4142 8.95929 12.5386C7.92294 12.6631 6.92263 12.9913 6.01809 13.5036C5.11355 14.0159 4.32329 14.702 3.69442 15.5208C3.06554 16.3396 2.61093 17.2744 2.35769 18.2695C2.10446 19.2646 2.05778 20.2996 2.22044 21.3128C2.3831 22.326 2.75176 23.2967 3.30445 24.1669C3.85715 25.0371 4.58255 25.7891 5.43742 26.3781C6.29229 26.9669 7.25911 27.3808 8.28025 27.5948H12.3055C13.032 27.5786 13.7266 27.2981 14.2544 26.8075C14.5014 26.5526 14.6945 26.2521 14.8227 25.9236C14.9509 25.5949 15.0115 25.2447 15.0013 24.8929V19.0598L13.0341 21.9764C12.9742 22.086 12.8917 22.1823 12.7917 22.2589C12.6919 22.3354 12.5768 22.3906 12.4539 22.4211C12.331 22.4514 12.203 22.4563 12.0781 22.4353C11.9532 22.4143 11.8342 22.368 11.7285 22.2992C11.6229 22.2304 11.5331 22.1408 11.4647 22.036C11.3964 21.9311 11.351 21.8135 11.3317 21.6905C11.3122 21.5675 11.3191 21.4418 11.352 21.3216C11.3848 21.2014 11.4429 21.0892 11.5224 20.9923L15.1652 15.6243C15.2461 15.5135 15.3528 15.4232 15.4763 15.3609C15.5998 15.2986 15.7367 15.2661 15.8755 15.2661C16.0143 15.2661 16.1512 15.2986 16.2747 15.3609C16.3982 15.4232 16.5049 15.5135 16.5858 15.6243L20.2286 20.9923C20.3081 21.0892 20.3661 21.2014 20.399 21.3216C20.4319 21.4418 20.4388 21.5675 20.4194 21.6905C20.4 21.8135 20.3547 21.9311 20.2863 22.036C20.2179 22.1408 20.1281 22.2304 20.0225 22.2992C19.9169 22.368 19.7977 22.4143 19.6729 22.4353C19.548 22.4563 19.42 22.4514 19.2971 22.4211C19.1742 22.3906 19.0591 22.3354 18.9593 22.2589C18.8593 22.1823 18.7768 22.086 18.7169 21.9764L16.8226 19.0598V24.8929C16.8233 25.4823 16.7045 26.0659 16.4731 26.6097C16.2417 27.1535 15.9023 27.6465 15.4748 28.06C14.6008 28.882 13.4426 29.3487 12.2327 29.3662H8.0981H7.89776C5.38582 28.9154 3.15906 27.5027 1.70735 25.439C0.255639 23.3753 -0.30211 20.8296 0.156802 18.362C0.615715 15.8942 2.0537 13.7068 4.15441 12.2806C6.25512 10.8544 8.84646 10.3066 11.3585 10.7574C11.4906 8.964 12.0456 7.22539 12.9794 5.67892C13.9133 4.13248 15.2005 2.8206 16.7393 1.84695C18.278 0.873304 20.0262 0.264579 21.8457 0.0688795C23.6652 -0.12682 25.506 0.095871 27.2228 0.719354C29.4368 1.51428 31.3506 2.95477 32.7081 4.84792C34.0655 6.74107 34.8017 8.99645 34.8181 11.3121C36.2776 10.7606 37.8525 10.5685 39.405 10.7525C40.9575 10.9365 42.4406 11.4911 43.7248 12.3678C45.7262 13.7073 47.1279 15.7504 47.6408 18.0757C47.9305 19.4466 47.9077 20.8636 47.5738 22.2247C47.2401 23.586 46.6036 24.8577 45.7101 25.9486Z" fill="var(--fill-0, #FF5722)"/>
</svg>
