<svg preserveAspectRatio="none" width="100%" height="100%" overflow="visible" style="display: block;" viewBox="0 0 24 24" fill="none" xmlns="http://www.w3.org/2000/svg">
<g id="icon-email">
<g id="Vector">
<path d="M3 5V4.5C2.72386 4.5 2.5 4.72386 2.5 5H3ZM21 5H21.5C21.5 4.72386 21.2761 4.5 21 4.5V5ZM3 5.5H21V4.5H3V5.5ZM20.5 5V17H21.5V5H20.5ZM19 18.5H5V19.5H19V18.5ZM3.5 17V5H2.5V17H3.5ZM5 18.5C4.17157 18.5 3.5 17.8284 3.5 17H2.5C2.5 18.3807 3.61929 19.5 5 19.5V18.5ZM20.5 17C20.5 17.8284 19.8284 18.5 19 18.5V19.5C20.3807 19.5 21.5 18.3807 21.5 17H20.5Z" fill="var(--fill-0, #FF5722)"/>
<path d="M20.6465 4.64648C20.8417 4.45122 21.1583 4.45122 21.3535 4.64648C21.5488 4.84175 21.5488 5.15825 21.3535 5.35352L12.3535 14.3535C12.1583 14.5488 11.8417 14.5488 11.6465 14.3535L2.64648 5.35352C2.45122 5.15825 2.45122 4.84175 2.64648 4.64648C2.84175 4.45122 3.15825 4.45122 3.35352 4.64648L12 13.293L20.6465 4.64648Z" fill="var(--fill-0, #FF5722)"/>
</g>
</g>
</svg>
