<svg preserveAspectRatio="none" width="100%" height="100%" overflow="visible" style="display: block;" viewBox="0 0 822 719" fill="none" xmlns="http://www.w3.org/2000/svg">
<g id="vector-line-footer">
<mask id="path-1-outside-1_0_4" maskUnits="userSpaceOnUse" x="1.23978e-05" y="0" width="822" height="719" fill="black">
<rect fill="white" x="1.23978e-05" width="822" height="719"/>
<path d="M784.454 445.503C769.224 464.476 749.835 479.838 727.732 490.45C705.629 501.063 681.376 506.652 656.772 506.805H367.378C355.067 506.805 343.251 511.563 334.486 520.055C325.722 528.544 320.716 540.081 320.551 552.168V652.399L354.266 602.743C356.707 599.77 360.19 597.796 364.033 597.212C367.875 596.626 371.804 597.473 375.045 599.581C378.288 601.692 380.61 604.912 381.56 608.616C382.511 612.317 382.017 616.235 380.178 619.601L317.742 711.554C316.453 713.438 314.744 715.009 312.747 716.152C310.612 717.363 308.19 718 305.724 718C303.257 718 300.835 717.363 298.7 716.152C297.267 715.242 296.002 714.101 294.953 712.781L232.517 620.828C230.678 617.462 230.186 613.544 231.135 609.842C232.085 606.139 234.407 602.917 237.648 600.808C240.891 598.697 244.818 597.853 248.662 598.437C252.505 599.023 255.988 600.996 258.427 603.97L289.333 652.703V552.168C289.28 542.021 291.295 531.965 295.265 522.595C299.231 513.225 305.071 504.73 312.436 497.609C319.701 490.567 328.339 485.036 337.835 481.349C347.328 477.663 357.485 475.895 367.692 476.154H656.772C676.634 476.193 696.253 471.864 714.19 463.484C732.123 455.102 747.921 442.885 760.415 427.725C772.969 412.395 781.867 394.499 786.457 375.353C791.049 356.207 791.219 336.293 786.951 317.075C779.89 284.995 760.558 256.797 732.944 238.302C712.851 224.747 689.346 216.891 665.004 215.592C640.663 214.296 616.427 219.608 594.96 230.944C586.937 281.845 559.059 327.683 517.227 358.761C515.586 359.969 513.72 360.846 511.735 361.346C509.749 361.844 507.683 361.956 505.654 361.671C503.623 361.387 501.671 360.714 499.909 359.688C498.145 358.662 496.602 357.305 495.374 355.695C494.143 354.084 493.248 352.253 492.741 350.304C492.232 348.354 492.119 346.326 492.408 344.332C492.698 342.34 493.385 340.423 494.429 338.693C495.473 336.959 496.856 335.447 498.495 334.239C517.028 320.499 532.51 303.192 543.997 283.376C555.484 263.56 562.732 241.653 565.302 218.991C565.725 212.869 565.725 206.724 565.302 200.6C565.901 166.549 555.71 133.157 536.135 105.042C516.56 76.9274 488.571 55.48 456.04 43.6672C429.758 34.1514 401.524 31.0212 373.746 34.5439C345.966 38.0667 319.468 48.1376 296.513 63.897C274.768 79.6226 257.123 100.18 245.024 123.887C232.923 147.595 226.712 173.778 226.897 200.295C227.39 202.983 227.224 205.748 226.408 208.36C225.594 210.972 224.156 213.357 222.214 215.313C220.348 217.213 218.03 218.626 215.468 219.428C212.907 220.233 210.184 220.397 207.543 219.911C190.343 215.058 172.323 213.657 154.559 215.788C136.796 217.92 119.651 223.543 104.148 232.318C88.6443 241.094 75.0996 252.847 64.321 266.873C53.5422 280.899 45.7504 296.913 41.4099 313.959C37.0697 331.005 36.2696 348.735 39.0575 366.091C41.8454 383.447 48.1641 400.075 57.637 414.982C67.1101 429.889 79.5432 442.77 94.1953 452.86C108.847 462.946 125.418 470.036 142.92 473.702H211.912C224.364 473.425 236.269 468.62 245.315 460.216C249.549 455.849 252.858 450.702 255.055 445.074C257.253 439.444 258.291 433.445 258.117 427.418V327.497L224.4 377.458C223.373 379.336 221.959 380.985 220.245 382.298C218.534 383.608 216.562 384.554 214.455 385.076C212.349 385.595 210.155 385.679 208.014 385.319C205.873 384.96 203.834 384.167 202.022 382.988C200.212 381.809 198.673 380.275 197.501 378.479C196.33 376.682 195.552 374.668 195.221 372.561C194.887 370.454 195.005 368.301 195.569 366.242C196.131 364.183 197.127 362.261 198.49 360.601L260.926 268.646C262.312 266.748 264.141 265.201 266.258 264.134C268.375 263.067 270.721 262.51 273.1 262.51C275.479 262.51 277.825 263.067 279.942 264.134C282.059 265.201 283.888 266.748 285.274 268.646L347.711 360.601C349.073 362.261 350.067 364.183 350.631 366.242C351.195 368.301 351.313 370.454 350.981 372.561C350.648 374.668 349.872 376.682 348.7 378.479C347.527 380.275 345.988 381.809 344.178 382.988C342.368 384.167 340.325 384.96 338.186 385.319C336.045 385.679 333.851 385.595 331.745 385.076C329.639 384.554 327.666 383.608 325.955 382.298C324.241 380.985 322.827 379.336 321.801 377.458L289.333 327.497V427.418C289.345 437.515 287.309 447.512 283.343 456.827C279.377 466.143 273.559 474.588 266.232 481.671C251.252 495.752 231.401 503.747 210.664 504.047H139.798H136.365C93.3109 496.324 55.1451 472.125 30.2633 436.773C5.38157 401.422 -4.17804 357.814 3.68754 315.543C11.5531 273.27 36.1997 235.799 72.205 211.368C108.21 186.937 152.625 177.553 195.68 185.276C197.945 154.554 207.457 124.772 223.462 98.2806C239.469 71.7899 261.531 49.3172 287.905 32.6385C314.278 15.9598 344.241 5.53227 375.427 2.17992C406.613 -1.17244 438.163 2.64228 467.588 13.3226C505.536 26.9398 538.337 51.6156 561.604 84.0455C584.87 116.475 597.488 155.11 597.769 194.778C622.784 185.33 649.778 182.04 676.387 185.192C702.996 188.344 728.416 197.844 750.427 212.862C784.73 235.808 808.754 270.806 817.545 310.639C822.511 334.123 822.12 358.396 816.397 381.712C810.677 405.031 799.768 426.815 784.454 445.503Z"/>
</mask>
<path d="M784.454 445.503C769.224 464.476 749.835 479.838 727.732 490.45C705.629 501.063 681.376 506.652 656.772 506.805H367.378C355.067 506.805 343.251 511.563 334.486 520.055C325.722 528.544 320.716 540.081 320.551 552.168V652.399L354.266 602.743C356.707 599.77 360.19 597.796 364.033 597.212C367.875 596.626 371.804 597.473 375.045 599.581C378.288 601.692 380.61 604.912 381.56 608.616C382.511 612.317 382.017 616.235 380.178 619.601L317.742 711.554C316.453 713.438 314.744 715.009 312.747 716.152C310.612 717.363 308.19 718 305.724 718C303.257 718 300.835 717.363 298.7 716.152C297.267 715.242 296.002 714.101 294.953 712.781L232.517 620.828C230.678 617.462 230.186 613.544 231.135 609.842C232.085 606.139 234.407 602.917 237.648 600.808C240.891 598.697 244.818 597.853 248.662 598.437C252.505 599.023 255.988 600.996 258.427 603.97L289.333 652.703V552.168C289.28 542.021 291.295 531.965 295.265 522.595C299.231 513.225 305.071 504.73 312.436 497.609C319.701 490.567 328.339 485.036 337.835 481.349C347.328 477.663 357.485 475.895 367.692 476.154H656.772C676.634 476.193 696.253 471.864 714.19 463.484C732.123 455.102 747.921 442.885 760.415 427.725C772.969 412.395 781.867 394.499 786.457 375.353C791.049 356.207 791.219 336.293 786.951 317.075C779.89 284.995 760.558 256.797 732.944 238.302C712.851 224.747 689.346 216.891 665.004 215.592C640.663 214.296 616.427 219.608 594.96 230.944C586.937 281.845 559.059 327.683 517.227 358.761C515.586 359.969 513.72 360.846 511.735 361.346C509.749 361.844 507.683 361.956 505.654 361.671C503.623 361.387 501.671 360.714 499.909 359.688C498.145 358.662 496.602 357.305 495.374 355.695C494.143 354.084 493.248 352.253 492.741 350.304C492.232 348.354 492.119 346.326 492.408 344.332C492.698 342.34 493.385 340.423 494.429 338.693C495.473 336.959 496.856 335.447 498.495 334.239C517.028 320.499 532.51 303.192 543.997 283.376C555.484 263.56 562.732 241.653 565.302 218.991C565.725 212.869 565.725 206.724 565.302 200.6C565.901 166.549 555.71 133.157 536.135 105.042C516.56 76.9274 488.571 55.48 456.04 43.6672C429.758 34.1514 401.524 31.0212 373.746 34.5439C345.966 38.0667 319.468 48.1376 296.513 63.897C274.768 79.6226 257.123 100.18 245.024 123.887C232.923 147.595 226.712 173.778 226.897 200.295C227.39 202.983 227.224 205.748 226.408 208.36C225.594 210.972 224.156 213.357 222.214 215.313C220.348 217.213 218.03 218.626 215.468 219.428C212.907 220.233 210.184 220.397 207.543 219.911C190.343 215.058 172.323 213.657 154.559 215.788C136.796 217.92 119.651 223.543 104.148 232.318C88.6443 241.094 75.0996 252.847 64.321 266.873C53.5422 280.899 45.7504 296.913 41.4099 313.959C37.0697 331.005 36.2696 348.735 39.0575 366.091C41.8454 383.447 48.1641 400.075 57.637 414.982C67.1101 429.889 79.5432 442.77 94.1953 452.86C108.847 462.946 125.418 470.036 142.92 473.702H211.912C224.364 473.425 236.269 468.62 245.315 460.216C249.549 455.849 252.858 450.702 255.055 445.074C257.253 439.444 258.291 433.445 258.117 427.418V327.497L224.4 377.458C223.373 379.336 221.959 380.985 220.245 382.298C218.534 383.608 216.562 384.554 214.455 385.076C212.349 385.595 210.155 385.679 208.014 385.319C205.873 384.96 203.834 384.167 202.022 382.988C200.212 381.809 198.673 380.275 197.501 378.479C196.33 376.682 195.552 374.668 195.221 372.561C194.887 370.454 195.005 368.301 195.569 366.242C196.131 364.183 197.127 362.261 198.49 360.601L260.926 268.646C262.312 266.748 264.141 265.201 266.258 264.134C268.375 263.067 270.721 262.51 273.1 262.51C275.479 262.51 277.825 263.067 279.942 264.134C282.059 265.201 283.888 266.748 285.274 268.646L347.711 360.601C349.073 362.261 350.067 364.183 350.631 366.242C351.195 368.301 351.313 370.454 350.981 372.561C350.648 374.668 349.872 376.682 348.7 378.479C347.527 380.275 345.988 381.809 344.178 382.988C342.368 384.167 340.325 384.96 338.186 385.319C336.045 385.679 333.851 385.595 331.745 385.076C329.639 384.554 327.666 383.608 325.955 382.298C324.241 380.985 322.827 379.336 321.801 377.458L289.333 327.497V427.418C289.345 437.515 287.309 447.512 283.343 456.827C279.377 466.143 273.559 474.588 266.232 481.671C251.252 495.752 231.401 503.747 210.664 504.047H139.798H136.365C93.3109 496.324 55.1451 472.125 30.2633 436.773C5.38157 401.422 -4.17804 357.814 3.68754 315.543C11.5531 273.27 36.1997 235.799 72.205 211.368C108.21 186.937 152.625 177.553 195.68 185.276C197.945 154.554 207.457 124.772 223.462 98.2806C239.469 71.7899 261.531 49.3172 287.905 32.6385C314.278 15.9598 344.241 5.53227 375.427 2.17992C406.613 -1.17244 438.163 2.64228 467.588 13.3226C505.536 26.9398 538.337 51.6156 561.604 84.0455C584.87 116.475 597.488 155.11 597.769 194.778C622.784 185.33 649.778 182.04 676.387 185.192C702.996 188.344 728.416 197.844 750.427 212.862C784.73 235.808 808.754 270.806 817.545 310.639C822.511 334.123 822.12 358.396 816.397 381.712C810.677 405.031 799.768 426.815 784.454 445.503Z" stroke="var(--stroke-0, #FF5722)" stroke-width="2" stroke-linecap="round" stroke-linejoin="round" mask="url(#path-1-outside-1_0_4)"/>
</g>
</svg>
