<svg preserveAspectRatio="none" width="100%" height="100%" overflow="visible" style="display: block;" viewBox="0 0 32 32" fill="none" xmlns="http://www.w3.org/2000/svg">
<g id="icon-container">
<path id="Vector" d="M16 12V17.3333" stroke="var(--stroke-0, #FFAE4C)" stroke-width="2" stroke-linecap="round" stroke-linejoin="round"/>
<path id="Vector_2" d="M13.8172 4.78858L3.00923 22.8339C2.78643 23.2198 2.66852 23.6572 2.66725 24.1028C2.66597 24.5483 2.78137 24.9864 3.00196 25.3736C3.22255 25.7607 3.54065 26.0833 3.92462 26.3093C4.30859 26.5353 4.74504 26.6569 5.19057 26.6619H26.8092C27.2546 26.6568 27.6908 26.5352 28.0746 26.3092C28.4584 26.0833 28.7763 25.7608 28.9969 25.3739C29.2174 24.987 29.3329 24.5491 29.3318 24.1037C29.3307 23.6584 29.213 23.2211 28.9906 22.8352L18.1826 4.78724C17.9552 4.41192 17.6348 4.10157 17.2525 3.88617C16.8702 3.67078 16.4387 3.55762 15.9999 3.55762C15.5611 3.55762 15.1296 3.67078 14.7473 3.88617C14.365 4.10157 14.0446 4.41192 13.8172 4.78724V4.78858Z" stroke="var(--stroke-0, #FFAE4C)" stroke-width="2" stroke-linecap="round" stroke-linejoin="round"/>
<path id="Vector_3" d="M16 21.333H16.0125" stroke="var(--stroke-0, #FFAE4C)" stroke-width="2" stroke-linecap="round" stroke-linejoin="round"/>
</g>
</svg>
