<svg preserveAspectRatio="none" width="100%" height="100%" overflow="visible" style="display: block;" viewBox="0 0 32 32" fill="none" xmlns="http://www.w3.org/2000/svg">
<g id="icon-container">
<path id="Vector" fill-rule="evenodd" clip-rule="evenodd" d="M27.421 6.08758C27.8374 5.67102 27.8374 4.99565 27.421 4.5791C27.0044 4.16252 26.329 4.16252 25.9123 4.5791L16 14.4915L6.08758 4.5791C5.67102 4.16252 4.99565 4.16252 4.5791 4.5791C4.16252 4.99565 4.16252 5.67102 4.5791 6.08758L14.4915 16L4.5791 25.9123C4.16252 26.329 4.16252 27.0044 4.5791 27.421C4.99565 27.8374 5.67102 27.8374 6.08758 27.421L16 17.5085L25.9123 27.421C26.329 27.8374 27.0044 27.8374 27.421 27.421C27.8374 27.0044 27.8374 26.329 27.421 25.9123L17.5085 16L27.421 6.08758Z" fill="var(--fill-0, #FF5722)"/>
</g>
</svg>
