<svg preserveAspectRatio="none" width="100%" height="100%" overflow="visible" style="display: block;" viewBox="0 0 81 81" fill="none" xmlns="http://www.w3.org/2000/svg">
<g id="iconstack.io - (Grid Dots)" opacity="0.5">
<path id="Vector" d="M13.5 16.875C13.5 17.7701 13.8556 18.6285 14.4885 19.2615C15.1215 19.8944 15.9799 20.25 16.875 20.25C17.7701 20.25 18.6285 19.8944 19.2615 19.2615C19.8944 18.6285 20.25 17.7701 20.25 16.875C20.25 15.9799 19.8944 15.1215 19.2615 14.4885C18.6285 13.8556 17.7701 13.5 16.875 13.5C15.9799 13.5 15.1215 13.8556 14.4885 14.4885C13.8556 15.1215 13.5 15.9799 13.5 16.875Z" fill="var(--fill-0, #FC6902)"/>
<path id="Vector_2" d="M37.125 16.875C37.125 17.7701 37.4806 18.6285 38.1135 19.2615C38.7465 19.8944 39.6049 20.25 40.5 20.25C41.3951 20.25 42.2535 19.8944 42.8865 19.2615C43.5194 18.6285 43.875 17.7701 43.875 16.875C43.875 15.9799 43.5194 15.1215 42.8865 14.4885C42.2535 13.8556 41.3951 13.5 40.5 13.5C39.6049 13.5 38.7465 13.8556 38.1135 14.4885C37.4806 15.1215 37.125 15.9799 37.125 16.875Z" fill="var(--fill-0, #FC6902)"/>
<path id="Vector_3" d="M60.75 16.875C60.75 17.7701 61.1056 18.6285 61.7385 19.2615C62.3714 19.8944 63.2299 20.25 64.125 20.25C65.0201 20.25 65.8786 19.8944 66.5115 19.2615C67.1444 18.6285 67.5 17.7701 67.5 16.875C67.5 15.9799 67.1444 15.1215 66.5115 14.4885C65.8786 13.8556 65.0201 13.5 64.125 13.5C63.2299 13.5 62.3714 13.8556 61.7385 14.4885C61.1056 15.1215 60.75 15.9799 60.75 16.875Z" fill="var(--fill-0, #FC6902)"/>
<path id="Vector_4" d="M13.5 40.5C13.5 41.3951 13.8556 42.2535 14.4885 42.8865C15.1215 43.5194 15.9799 43.875 16.875 43.875C17.7701 43.875 18.6285 43.5194 19.2615 42.8865C19.8944 42.2535 20.25 41.3951 20.25 40.5C20.25 39.6049 19.8944 38.7465 19.2615 38.1135C18.6285 37.4806 17.7701 37.125 16.875 37.125C15.9799 37.125 15.1215 37.4806 14.4885 38.1135C13.8556 38.7465 13.5 39.6049 13.5 40.5Z" fill="var(--fill-0, #FC6902)"/>
<path id="Vector_5" d="M37.125 40.5C37.125 41.3951 37.4806 42.2535 38.1135 42.8865C38.7465 43.5194 39.6049 43.875 40.5 43.875C41.3951 43.875 42.2535 43.5194 42.8865 42.8865C43.5194 42.2535 43.875 41.3951 43.875 40.5C43.875 39.6049 43.5194 38.7465 42.8865 38.1135C42.2535 37.4806 41.3951 37.125 40.5 37.125C39.6049 37.125 38.7465 37.4806 38.1135 38.1135C37.4806 38.7465 37.125 39.6049 37.125 40.5Z" fill="var(--fill-0, #FC6902)"/>
<path id="Vector_6" d="M60.75 40.5C60.75 41.3951 61.1056 42.2535 61.7385 42.8865C62.3714 43.5194 63.2299 43.875 64.125 43.875C65.0201 43.875 65.8786 43.5194 66.5115 42.8865C67.1444 42.2535 67.5 41.3951 67.5 40.5C67.5 39.6049 67.1444 38.7465 66.5115 38.1135C65.8786 37.4806 65.0201 37.125 64.125 37.125C63.2299 37.125 62.3714 37.4806 61.7385 38.1135C61.1056 38.7465 60.75 39.6049 60.75 40.5Z" fill="var(--fill-0, #FC6902)"/>
<path id="Vector_7" d="M13.5 64.125C13.5 65.0201 13.8556 65.8786 14.4885 66.5115C15.1215 67.1444 15.9799 67.5 16.875 67.5C17.7701 67.5 18.6285 67.1444 19.2615 66.5115C19.8944 65.8786 20.25 65.0201 20.25 64.125C20.25 63.2299 19.8944 62.3714 19.2615 61.7385C18.6285 61.1056 17.7701 60.75 16.875 60.75C15.9799 60.75 15.1215 61.1056 14.4885 61.7385C13.8556 62.3714 13.5 63.2299 13.5 64.125Z" fill="var(--fill-0, #FC6902)"/>
<path id="Vector_8" d="M37.125 64.125C37.125 65.0201 37.4806 65.8786 38.1135 66.5115C38.7465 67.1444 39.6049 67.5 40.5 67.5C41.3951 67.5 42.2535 67.1444 42.8865 66.5115C43.5194 65.8786 43.875 65.0201 43.875 64.125C43.875 63.2299 43.5194 62.3714 42.8865 61.7385C42.2535 61.1056 41.3951 60.75 40.5 60.75C39.6049 60.75 38.7465 61.1056 38.1135 61.7385C37.4806 62.3714 37.125 63.2299 37.125 64.125Z" fill="var(--fill-0, #FC6902)"/>
<path id="Vector_9" d="M60.75 64.125C60.75 65.0201 61.1056 65.8786 61.7385 66.5115C62.3714 67.1444 63.2299 67.5 64.125 67.5C65.0201 67.5 65.8786 67.1444 66.5115 66.5115C67.1444 65.8786 67.5 65.0201 67.5 64.125C67.5 63.2299 67.1444 62.3714 66.5115 61.7385C65.8786 61.1056 65.0201 60.75 64.125 60.75C63.2299 60.75 62.3714 61.1056 61.7385 61.7385C61.1056 62.3714 60.75 63.2299 60.75 64.125Z" fill="var(--fill-0, #FC6902)"/>
</g>
</svg>
