<svg preserveAspectRatio="none" width="100%" height="100%" overflow="visible" style="display: block;" viewBox="0 0 31 31" fill="none" xmlns="http://www.w3.org/2000/svg">
<g id="iconstack.io - (Grid Dots)" opacity="0.2">
<path id="Vector" d="M5.16667 6.45833C5.16667 6.80091 5.30275 7.12945 5.54499 7.37168C5.78722 7.61391 6.11576 7.75 6.45833 7.75C6.80091 7.75 7.12945 7.61391 7.37168 7.37168C7.61391 7.12945 7.75 6.80091 7.75 6.45833C7.75 6.11576 7.61391 5.78722 7.37168 5.54499C7.12945 5.30275 6.80091 5.16667 6.45833 5.16667C6.11576 5.16667 5.78722 5.30275 5.54499 5.54499C5.30275 5.78722 5.16667 6.11576 5.16667 6.45833Z" fill="var(--fill-0, #FC6902)"/>
<path id="Vector_2" d="M14.2083 6.45833C14.2083 6.80091 14.3444 7.12945 14.5867 7.37168C14.8289 7.61391 15.1574 7.75 15.5 7.75C15.8426 7.75 16.1711 7.61391 16.4133 7.37168C16.6556 7.12945 16.7917 6.80091 16.7917 6.45833C16.7917 6.11576 16.6556 5.78722 16.4133 5.54499C16.1711 5.30275 15.8426 5.16667 15.5 5.16667C15.1574 5.16667 14.8289 5.30275 14.5867 5.54499C14.3444 5.78722 14.2083 6.11576 14.2083 6.45833Z" fill="var(--fill-0, #FC6902)"/>
<path id="Vector_3" d="M23.25 6.45833C23.25 6.80091 23.3861 7.12945 23.6283 7.37168C23.8706 7.61391 24.1991 7.75 24.5417 7.75C24.8842 7.75 25.2128 7.61391 25.455 7.37168C25.6972 7.12945 25.8333 6.80091 25.8333 6.45833C25.8333 6.11576 25.6972 5.78722 25.455 5.54499C25.2128 5.30275 24.8842 5.16667 24.5417 5.16667C24.1991 5.16667 23.8706 5.30275 23.6283 5.54499C23.3861 5.78722 23.25 6.11576 23.25 6.45833Z" fill="var(--fill-0, #FC6902)"/>
<path id="Vector_4" d="M5.16667 15.5C5.16667 15.8426 5.30275 16.1711 5.54499 16.4133C5.78722 16.6556 6.11576 16.7917 6.45833 16.7917C6.80091 16.7917 7.12945 16.6556 7.37168 16.4133C7.61391 16.1711 7.75 15.8426 7.75 15.5C7.75 15.1574 7.61391 14.8289 7.37168 14.5867C7.12945 14.3444 6.80091 14.2083 6.45833 14.2083C6.11576 14.2083 5.78722 14.3444 5.54499 14.5867C5.30275 14.8289 5.16667 15.1574 5.16667 15.5Z" fill="var(--fill-0, #FC6902)"/>
<path id="Vector_5" d="M14.2083 15.5C14.2083 15.8426 14.3444 16.1711 14.5867 16.4133C14.8289 16.6556 15.1574 16.7917 15.5 16.7917C15.8426 16.7917 16.1711 16.6556 16.4133 16.4133C16.6556 16.1711 16.7917 15.8426 16.7917 15.5C16.7917 15.1574 16.6556 14.8289 16.4133 14.5867C16.1711 14.3444 15.8426 14.2083 15.5 14.2083C15.1574 14.2083 14.8289 14.3444 14.5867 14.5867C14.3444 14.8289 14.2083 15.1574 14.2083 15.5Z" fill="var(--fill-0, #FC6902)"/>
<path id="Vector_6" d="M23.25 15.5C23.25 15.8426 23.3861 16.1711 23.6283 16.4133C23.8706 16.6556 24.1991 16.7917 24.5417 16.7917C24.8842 16.7917 25.2128 16.6556 25.455 16.4133C25.6972 16.1711 25.8333 15.8426 25.8333 15.5C25.8333 15.1574 25.6972 14.8289 25.455 14.5867C25.2128 14.3444 24.8842 14.2083 24.5417 14.2083C24.1991 14.2083 23.8706 14.3444 23.6283 14.5867C23.3861 14.8289 23.25 15.1574 23.25 15.5Z" fill="var(--fill-0, #FC6902)"/>
<path id="Vector_7" d="M5.16667 24.5417C5.16667 24.8842 5.30275 25.2128 5.54499 25.455C5.78722 25.6972 6.11576 25.8333 6.45833 25.8333C6.80091 25.8333 7.12945 25.6972 7.37168 25.455C7.61391 25.2128 7.75 24.8842 7.75 24.5417C7.75 24.1991 7.61391 23.8706 7.37168 23.6283C7.12945 23.3861 6.80091 23.25 6.45833 23.25C6.11576 23.25 5.78722 23.3861 5.54499 23.6283C5.30275 23.8706 5.16667 24.1991 5.16667 24.5417Z" fill="var(--fill-0, #FC6902)"/>
<path id="Vector_8" d="M14.2083 24.5417C14.2083 24.8842 14.3444 25.2128 14.5867 25.455C14.8289 25.6972 15.1574 25.8333 15.5 25.8333C15.8426 25.8333 16.1711 25.6972 16.4133 25.455C16.6556 25.2128 16.7917 24.8842 16.7917 24.5417C16.7917 24.1991 16.6556 23.8706 16.4133 23.6283C16.1711 23.3861 15.8426 23.25 15.5 23.25C15.1574 23.25 14.8289 23.3861 14.5867 23.6283C14.3444 23.8706 14.2083 24.1991 14.2083 24.5417Z" fill="var(--fill-0, #FC6902)"/>
<path id="Vector_9" d="M23.25 24.5417C23.25 24.8842 23.3861 25.2128 23.6283 25.455C23.8706 25.6972 24.1991 25.8333 24.5417 25.8333C24.8842 25.8333 25.2128 25.6972 25.455 25.455C25.6972 25.2128 25.8333 24.8842 25.8333 24.5417C25.8333 24.1991 25.6972 23.8706 25.455 23.6283C25.2128 23.3861 24.8842 23.25 24.5417 23.25C24.1991 23.25 23.8706 23.3861 23.6283 23.6283C23.3861 23.8706 23.25 24.1991 23.25 24.5417Z" fill="var(--fill-0, #FC6902)"/>
</g>
</svg>
