<svg preserveAspectRatio="none" width="100%" height="100%" overflow="visible" style="display: block;" viewBox="0 0 48 48" fill="none" xmlns="http://www.w3.org/2000/svg">
<g id="iconstack.io - (Ease Curve Control Points)">
<path id="Vector" d="M42.0002 7.99994C32.0002 7.99994 27.9586 16.0831 24.0002 23.9999C20.0418 31.9167 16.0002 39.9999 6.00015 39.9999M20.0002 39.9999H24.0002M30.0002 39.9999H34.0002M34.0002 39.9999C34.0002 42.2091 35.791 43.9999 38.0002 43.9999C40.2094 43.9999 42.0002 42.2091 42.0002 39.9999C42.0002 37.7907 40.2094 35.9999 38.0002 35.9999C35.791 35.9999 34.0002 37.7907 34.0002 39.9999ZM24.0002 7.99994H28.0002M14.0002 7.99994H18.0002M14.0002 7.99994C14.0002 10.2091 12.2093 11.9999 10.0002 11.9999C7.79101 11.9999 6.00015 10.2091 6.00015 7.99994C6.00015 5.7908 7.79101 3.99994 10.0002 3.99994C12.2093 3.99994 14.0002 5.7908 14.0002 7.99994Z" stroke="var(--stroke-0, #FF5722)" stroke-width="2.976" stroke-linecap="round"/>
</g>
</svg>
