<svg preserveAspectRatio="none" width="100%" height="100%" overflow="visible" style="display: block;" viewBox="0 0 48.0702 48.0702" fill="none" xmlns="http://www.w3.org/2000/svg">
<g id="iconstack.io - (Solar System)">
<path id="Vector" d="M12.9852 7.32714C12.2522 6.51748 11.1928 6.00883 10.0147 6.00883C7.80228 6.00883 6.0088 7.80231 6.0088 10.0147C6.0088 11.1929 6.51745 12.2523 7.32711 12.9852M12.9852 7.32714C13.6286 8.03786 14.0205 8.98049 14.0205 10.0147C14.0205 12.2271 12.227 14.0205 10.0147 14.0205C8.98046 14.0205 8.03783 13.6286 7.32711 12.9852M12.9852 7.32714C16.1524 5.2283 19.951 4.00591 24.0351 4.00591C35.0969 4.00591 44.0644 12.9733 44.0644 24.0352C44.0644 28.1047 42.8506 31.8908 40.7656 35.0512M7.32711 12.9852C5.22826 16.1524 4.00588 19.9511 4.00588 24.0352C4.00588 35.0969 12.9733 44.0644 24.0351 44.0644C28.1193 44.0644 31.9178 42.842 35.0851 40.7432M35.0851 40.7432C35.8179 41.5529 36.8775 42.0615 38.0556 42.0615C40.268 42.0615 42.0614 40.2681 42.0614 38.0556C42.0614 35.8432 40.268 34.0498 38.0556 34.0498C35.8432 34.0498 34.0497 35.8432 34.0497 38.0556C34.0497 39.0897 34.4417 40.0325 35.0851 40.7432ZM22.8774 14.7782C23.4246 14.2731 23.6982 14.0205 24.0351 14.0205C24.372 14.0205 24.6456 14.2731 25.1928 14.7782L26.1258 15.6392C26.4132 15.9043 26.5568 16.0369 26.7399 16.0937C26.9231 16.1504 27.121 16.1237 27.5168 16.0703L28.8021 15.8969C29.556 15.7952 29.9329 15.7443 30.2055 15.9332C30.4779 16.122 30.5438 16.4798 30.6754 17.1953L30.8995 18.415C30.9686 18.7906 31.0033 18.9784 31.1165 19.127C31.2296 19.2757 31.4063 19.3651 31.7592 19.5438L32.9059 20.1242C33.5787 20.4645 33.9149 20.6348 34.0191 20.9404C34.1231 21.2461 33.9558 21.5724 33.6215 22.2251L33.0515 23.3375C32.8758 23.68 32.7881 23.8515 32.7881 24.0352C32.7881 24.2188 32.8758 24.3903 33.0515 24.7328L33.6215 25.8452C33.9558 26.498 34.1231 26.8242 34.0191 27.1299C33.9149 27.4355 33.5787 27.6058 32.9059 27.9461L31.7592 28.5265C31.4063 28.7052 31.2296 28.7947 31.1165 28.9433C31.0033 29.0919 30.9686 29.2798 30.8995 29.6554L30.6754 30.8749C30.5438 31.5906 30.4779 31.9483 30.2055 32.1372C29.9329 32.3261 29.556 32.2752 28.8021 32.1734L27.5168 32C27.121 31.9465 26.9231 31.9199 26.7399 31.9768C26.5568 32.0334 26.4132 32.166 26.1258 32.4312L25.1928 33.2921C24.6456 33.7972 24.372 34.0498 24.0351 34.0498C23.6982 34.0498 23.4246 33.7972 22.8774 33.2921L21.9445 32.4312C21.6571 32.166 21.5134 32.0334 21.3304 31.9768C21.1471 31.9199 20.9492 31.9465 20.5534 32L19.2682 32.1734C18.5142 32.2752 18.1372 32.3261 17.8647 32.1372C17.5923 31.9483 17.5265 31.5906 17.3949 30.8749L17.1706 29.6554C17.1016 29.2798 17.067 29.0919 16.9538 28.9433C16.8406 28.7947 16.6641 28.7052 16.3109 28.5265L15.1643 27.9461C14.4916 27.6058 14.1553 27.4355 14.0512 27.1299C13.9472 26.8242 14.1144 26.498 14.4488 25.8452L15.0188 24.7328C15.1944 24.3903 15.2822 24.2188 15.2822 24.0352C15.2822 23.8515 15.1944 23.68 15.0188 23.3375L14.4488 22.2251C14.1144 21.5724 13.9472 21.2461 14.0512 20.9404C14.1553 20.6348 14.4916 20.4645 15.1643 20.1242L16.3109 19.5438C16.6641 19.3651 16.8406 19.2757 16.9538 19.127C17.067 18.9784 17.1016 18.7906 17.1706 18.415L17.3949 17.1953C17.5265 16.4798 17.5923 16.122 17.8647 15.9332C18.1372 15.7443 18.5142 15.7952 19.2682 15.8969L20.5534 16.0703C20.9492 16.1237 21.1471 16.1504 21.3304 16.0937C21.5134 16.0369 21.6571 15.9043 21.9445 15.6392L22.8774 14.7782Z" stroke="var(--stroke-0, #FF5722)" stroke-width="3.00439" stroke-linecap="round"/>
</g>
</svg>
