<svg preserveAspectRatio="none" width="100%" height="100%" overflow="visible" style="display: block;" viewBox="0 0 47.616 47.616" fill="none" xmlns="http://www.w3.org/2000/svg">
<g id="iconstack.io - (Installing Updates 01)">
<path id="Vector" d="M43.6479 35.712C43.6479 37.5571 43.6479 38.4797 43.4451 39.2365C42.8947 41.2904 41.2903 42.8948 39.2364 43.4452C38.4796 43.648 37.557 43.648 35.7119 43.648H11.9039C10.0588 43.648 9.13629 43.648 8.37939 43.4452C6.32542 42.8948 4.72106 41.2904 4.1707 39.2365C3.96789 38.4797 3.96789 37.5571 3.96789 35.712M29.7599 21.3284C29.7599 24.6156 27.0952 27.2803 23.8079 27.2803C20.5206 27.2803 17.8559 24.6156 17.8559 21.3284C17.8559 18.0412 20.5206 15.3764 23.8079 15.3764C27.0952 15.3764 29.7599 18.0412 29.7599 21.3284ZM39.8157 12.8799L38.9619 11.3928C38.3163 10.2682 37.9934 9.70588 37.4442 9.48165C36.8948 9.25742 36.2736 9.43435 35.0312 9.78824L32.9207 10.3849C32.1275 10.5685 31.2952 10.4643 30.5708 10.0908L29.9883 9.7534C29.3671 9.35414 28.8894 8.76547 28.6249 8.07351L28.0474 6.34205C27.6676 5.19625 27.4778 4.62337 27.0256 4.29568C26.5735 3.968 25.9731 3.968 24.772 3.968H22.8439C21.6428 3.968 21.0425 3.968 20.5903 4.29568C20.1382 4.62337 19.9483 5.19625 19.5686 6.34205L18.9909 8.07351C18.7265 8.76547 18.2488 9.35414 17.6277 9.7534L17.045 10.0908C16.3207 10.4643 15.4885 10.5685 14.6953 10.3849L12.5847 9.78824C11.3423 9.43435 10.721 9.25742 10.1718 9.48165C9.62247 9.70588 9.29965 10.2682 8.65398 11.3928L7.80025 12.8799C7.19505 13.9341 6.89243 14.4612 6.95115 15.0223C7.0099 15.5834 7.41499 16.0356 8.22522 16.9399L10.0085 18.941C10.4444 19.4948 10.7538 20.46 10.7538 21.3278C10.7538 22.196 10.4445 23.1608 10.0086 23.7147L8.22522 25.716C7.41501 26.6203 7.0099 27.0725 6.95117 27.6335C6.89243 28.1946 7.19505 28.7218 7.80027 29.7759L8.65396 31.2629C9.29961 32.3876 9.62247 32.9499 10.1718 33.1742C10.7211 33.3984 11.3423 33.2215 12.5848 32.8675L14.6952 32.2709C15.4886 32.0872 16.321 32.1914 17.0453 32.5652L17.6279 32.9026C18.2489 33.3018 18.7265 33.8905 18.9909 34.5823L19.5686 36.3139C19.9483 37.4597 20.1382 38.0327 20.5903 38.3602C21.0425 38.688 21.6428 38.688 22.8439 38.688H24.772C25.9731 38.688 26.5735 38.688 27.0256 38.3602C27.4778 38.0327 27.6676 37.4597 28.0474 36.3139L28.6251 34.5823C28.8894 33.8905 29.3671 33.3018 29.9879 32.9026L30.5706 32.5652C31.295 32.1914 32.1273 32.0872 32.9207 32.2709L35.0312 32.8675C36.2736 33.2215 36.8948 33.3984 37.4442 33.1742C37.9935 32.9499 38.3163 32.3876 38.9619 31.2629L39.8157 29.7759C40.421 28.7218 40.7235 28.1946 40.6648 27.6335C40.6061 27.0725 40.2009 26.6203 39.3907 25.716L37.6073 23.7147C37.1714 23.1608 36.8621 22.196 36.8621 21.3278C36.8621 20.46 37.1716 19.4948 37.6075 18.941L39.3907 16.9399C40.2009 16.0356 40.6061 15.5834 40.6648 15.0223C40.7235 14.4612 40.421 13.9341 39.8157 12.8799Z" stroke="var(--stroke-0, #FF5722)" stroke-width="2.976" stroke-linecap="round"/>
</g>
</svg>
