<svg preserveAspectRatio="none" width="100%" height="100%" overflow="visible" style="display: block;" viewBox="0 0 18 18" fill="none" xmlns="http://www.w3.org/2000/svg">
<g id="iconstack.io - (Check Circle)" clip-path="url(#clip0_0_9)">
<path id="Vector" d="M17 8.2637V8.9997C16.999 10.7248 16.4404 12.4034 15.4075 13.7852C14.3745 15.1669 12.9226 16.1777 11.2683 16.6668C9.61395 17.156 7.84581 17.0972 6.22758 16.4994C4.60935 15.9015 3.22772 14.7966 2.28877 13.3493C1.34981 11.9021 0.903833 10.1901 1.01734 8.46875C1.13085 6.74735 1.79777 5.10876 2.91862 3.79735C4.03948 2.48595 5.55423 1.572 7.23695 1.19181C8.91968 0.811624 10.6802 0.985566 12.256 1.6877" stroke="var(--stroke-0, #FF5722)" stroke-width="1.2" stroke-linecap="round" stroke-linejoin="round"/>
<path id="Vector_2" d="M17 2.5998L9 10.6078L6.6 8.2078" stroke="var(--stroke-0, #FF5722)" stroke-width="1.2" stroke-linecap="round" stroke-linejoin="round"/>
</g>
<defs>
<clipPath id="clip0_0_9">
<rect width="18" height="18" fill="white"/>
</clipPath>
</defs>
</svg>
