<svg preserveAspectRatio="none" width="100%" height="100%" overflow="visible" style="display: block;" viewBox="0 0 87 87.0035" fill="none" xmlns="http://www.w3.org/2000/svg">
<g id="iconstack.io - (Warning Diamond Fill)">
<g id="Vector" filter="url(#filter0_f_0_8)">
<path d="M62.1811 41.5375L45.4555 24.8102C44.9335 24.2913 44.2274 24 43.4913 24C42.7552 24 42.0491 24.2913 41.5271 24.8102L24.8102 41.5375C24.2913 42.0595 24 42.7657 24 43.5017C24 44.2378 24.2913 44.944 24.8102 45.466L41.5358 62.1933C42.0578 62.7122 42.7639 63.0035 43.5 63.0035C44.2361 63.0035 44.9422 62.7122 45.4642 62.1933L62.1898 45.466C62.7087 44.944 63 44.2378 63 43.5017C63 42.7657 62.7087 42.0595 62.1898 41.5375H62.1811ZM42.0982 35.1433C42.0982 34.7738 42.245 34.4195 42.5062 34.1583C42.7675 33.897 43.1218 33.7502 43.4913 33.7502C43.8608 33.7502 44.2151 33.897 44.4763 34.1583C44.7376 34.4195 44.8844 34.7738 44.8844 35.1433V44.8948C44.8844 45.2643 44.7376 45.6186 44.4763 45.8799C44.2151 46.1411 43.8608 46.2879 43.4913 46.2879C43.1218 46.2879 42.7675 46.1411 42.5062 45.8799C42.245 45.6186 42.0982 45.2643 42.0982 44.8948V35.1433ZM43.4913 53.2532C43.078 53.2532 42.674 53.1307 42.3304 52.9011C41.9867 52.6715 41.7189 52.3451 41.5607 51.9633C41.4026 51.5815 41.3612 51.1613 41.4418 50.756C41.5225 50.3506 41.7215 49.9783 42.0137 49.6861C42.306 49.3938 42.6783 49.1948 43.0836 49.1142C43.489 49.0336 43.9091 49.0749 44.291 49.2331C44.6728 49.3913 44.9991 49.6591 45.2287 50.0027C45.4583 50.3463 45.5809 50.7504 45.5809 51.1636C45.5809 51.7178 45.3607 52.2493 44.9689 52.6412C44.577 53.0331 44.0455 53.2532 43.4913 53.2532Z" fill="var(--fill-0, #FF5722)"/>
</g>
<path id="Vector_2" d="M57.4078 41.5891L45.4016 29.5816C45.0269 29.2091 44.52 29 43.9916 29C43.4632 29 42.9563 29.2091 42.5816 29.5816L30.5816 41.5891C30.2091 41.9638 30 42.4707 30 42.9991C30 43.5275 30.2091 44.0344 30.5816 44.4091L42.5878 56.4166C42.9626 56.7891 43.4695 56.9982 43.9978 56.9982C44.5262 56.9982 45.0331 56.7891 45.4078 56.4166L57.4141 44.4091C57.7866 44.0344 57.9957 43.5275 57.9957 42.9991C57.9957 42.4707 57.7866 41.9638 57.4141 41.5891H57.4078ZM42.9916 36.9991C42.9916 36.7339 43.0969 36.4795 43.2845 36.292C43.472 36.1044 43.7264 35.9991 43.9916 35.9991C44.2568 35.9991 44.5112 36.1044 44.6987 36.292C44.8862 36.4795 44.9916 36.7339 44.9916 36.9991V43.9991C44.9916 44.2643 44.8862 44.5187 44.6987 44.7062C44.5112 44.8937 44.2568 44.9991 43.9916 44.9991C43.7264 44.9991 43.472 44.8937 43.2845 44.7062C43.0969 44.5187 42.9916 44.2643 42.9916 43.9991V36.9991ZM43.9916 49.9991C43.6949 49.9991 43.4049 49.9111 43.1582 49.7463C42.9116 49.5815 42.7193 49.3472 42.6058 49.0731C42.4922 48.799 42.4625 48.4974 42.5204 48.2065C42.5783 47.9155 42.7211 47.6482 42.9309 47.4384C43.1407 47.2286 43.408 47.0858 43.699 47.0279C43.9899 46.97 44.2915 46.9997 44.5656 47.1133C44.8397 47.2268 45.074 47.4191 45.2388 47.6657C45.4036 47.9124 45.4916 48.2024 45.4916 48.4991C45.4916 48.8969 45.3336 49.2784 45.0522 49.5597C44.7709 49.8411 44.3894 49.9991 43.9916 49.9991Z" fill="var(--fill-0, white)"/>
</g>
<defs>
<filter id="filter0_f_0_8" x="0" y="0" width="87" height="87.0035" filterUnits="userSpaceOnUse" color-interpolation-filters="sRGB">
<feFlood flood-opacity="0" result="BackgroundImageFix"/>
<feBlend mode="normal" in="SourceGraphic" in2="BackgroundImageFix" result="shape"/>
<feGaussianBlur stdDeviation="12" result="effect1_foregroundBlur_0_8"/>
</filter>
</defs>
</svg>
