<svg width="46" height="46" overflow="visible" style="display: block;" viewBox="0 0 46 46" fill="none" xmlns="http://www.w3.org/2000/svg">
<g id="iconstack.io - (Mark Github 16)" clip-path="url(#clip0_0_24)">
<path id="Vector" d="M23 0C35.7075 0 46 10.2925 46 23C45.9988 27.8191 44.4863 32.5164 41.6755 36.4309C38.8648 40.3454 34.8972 43.2798 30.3313 44.8213C29.1813 45.0513 28.75 44.3325 28.75 43.7288C28.75 42.9525 28.7788 40.48 28.7788 37.4038C28.7788 35.2475 28.06 33.8675 27.2263 33.1487C32.3438 32.5737 37.72 30.6187 37.72 21.7925C37.72 19.2625 36.8288 17.2212 35.3625 15.6112C35.5925 15.0362 36.3975 12.6787 35.1325 9.51625C35.1325 9.51625 33.2063 8.88375 28.8075 11.8738C26.9675 11.3563 25.0125 11.0975 23.0575 11.0975C21.1025 11.0975 19.1475 11.3563 17.3075 11.8738C12.9088 8.9125 10.9825 9.51625 10.9825 9.51625C9.7175 12.6787 10.5225 15.0362 10.7525 15.6112C9.28625 17.2212 8.395 19.2912 8.395 21.7925C8.395 30.59 13.7425 32.5737 18.86 33.1487C18.1988 33.7237 17.595 34.73 17.3938 36.225C16.0713 36.8288 12.765 37.8062 10.695 34.3275C10.2638 33.6375 8.97 31.9412 7.15875 31.97C5.2325 31.9987 6.3825 33.0625 7.1875 33.4937C8.165 34.04 9.28625 36.0812 9.545 36.7425C10.005 38.0362 11.5 40.5088 17.2788 39.445C17.2788 41.3713 17.3075 43.1825 17.3075 43.7288C17.3075 44.3325 16.8763 45.0225 15.7263 44.8213C11.1453 43.2965 7.16086 40.3679 4.33806 36.4511C1.51526 32.5343 -0.00253138 27.828 3.16915e-06 23C3.16915e-06 10.2925 10.2925 0 23 0Z" fill="var(--fill-0, black)"/>
</g>
<defs>
<clipPath id="clip0_0_24">
<rect width="46" height="46" fill="white"/>
</clipPath>
</defs>
</svg>
