<svg preserveAspectRatio="none" width="100%" height="100%" overflow="visible" style="display: block;" viewBox="0 0 36 36" fill="none" xmlns="http://www.w3.org/2000/svg">
<g id="iconstack.io - (Ansible)">
<path id="Vector" d="M17.9999 2.99979C9.74995 2.99979 2.99995 9.74979 2.99995 17.9998C2.99995 26.2498 9.74995 32.9998 17.9999 32.9998C26.2499 32.9998 32.9999 26.2498 32.9999 17.9998C32.9999 9.74979 26.2499 2.99979 17.9999 2.99979ZM24.1499 25.4998C23.8649 25.4998 23.6399 25.3498 23.3249 25.0948L15.5849 18.8398L12.9899 25.3498H10.7549L17.3099 9.58479C17.4749 9.16479 17.8349 8.95479 18.2549 8.95479C18.6749 8.95479 19.0049 9.16479 19.1849 9.58479L25.1549 23.9548C25.2149 24.1198 25.2599 24.2848 25.2599 24.3898C25.2449 25.0198 24.7499 25.4998 24.1499 25.4998ZM18.2549 12.1648L22.1399 21.7498L16.2749 17.1298L18.2549 12.1648Z" stroke="var(--stroke-0, black)" stroke-width="1.5"/>
</g>
</svg>
