<svg preserveAspectRatio="none" width="100%" height="100%" overflow="visible" style="display: block;" viewBox="0 0 36 36" fill="none" xmlns="http://www.w3.org/2000/svg">
<g id="iconstack.io - (Brand Docker)">
<path id="Union" d="M21 4.5C21.8284 4.5 22.4999 5.17167 22.5 6V17.999H24.8164C24.6956 17.0394 24.9733 16.1627 25.291 15.4854C25.6436 14.7339 26.1368 14.0387 26.4864 13.5391L26.6123 13.3828C26.9282 13.04 27.3898 12.8603 27.8614 12.9062C28.4001 12.9589 28.8691 13.2978 29.0879 13.793C29.6572 15.0812 30.1852 15.8209 30.7647 16.3027C31.3324 16.7748 32.0779 17.1056 33.2823 17.3359C33.779 17.4311 34.1941 17.7706 34.3867 18.2383C34.5794 18.7061 34.5232 19.2398 34.2373 19.6572C33.7174 20.4164 32.9715 21.3984 32.0928 22.2266C31.4286 22.8524 30.5523 23.52 29.5313 23.8301C26.0717 29.451 20.0878 31.5298 13.794 31.498V31.499L13.792 31.498C13.7901 31.4981 13.7881 31.499 13.7862 31.499V31.498C11.2349 31.4965 8.51145 30.7425 6.41409 28.7725C4.29191 26.779 3.00004 23.7197 3.00003 19.499C3.00024 18.6708 3.67177 17.9991 4.50003 17.999H6.00003V15C6.00014 14.1717 6.67171 13.5 7.50003 13.5H10.5V10.5C10.5001 9.6717 11.1717 9.00004 12 9H15V6C15.0001 5.1717 15.6717 4.50004 16.5 4.5H21ZM27.7881 17.5117C27.7862 17.5777 27.7908 17.6328 27.8008 17.6787C27.8113 17.7267 27.8195 17.7754 27.8252 17.8242C27.8748 18.2457 27.7634 18.6414 27.7061 18.8271C27.6294 19.0754 27.5225 19.3326 27.4014 19.5684C27.2845 19.7959 27.1229 20.0646 26.917 20.3008C26.8144 20.4185 26.6659 20.5695 26.4688 20.7002C26.2794 20.8257 25.9436 20.999 25.5 20.999H21.0196C21.0131 20.9991 21.0065 21 21 21H7.50003C7.4935 21 7.487 20.9991 7.4805 20.999H6.07034C6.32785 23.7177 7.28582 25.4748 8.46878 26.5859C9.87917 27.9106 11.7997 28.499 13.794 28.499H13.8018C19.658 28.5303 24.5843 26.5637 27.2657 21.7676L27.3653 21.6123C27.6187 21.2667 28.0106 21.043 28.4434 21.0049C28.7861 20.9746 29.3347 20.7031 30.0352 20.043C30.1814 19.9052 30.3247 19.7586 30.4649 19.6074C29.8838 19.3491 29.3451 19.0247 28.8467 18.6104C28.4555 18.2851 28.1064 17.918 27.7881 17.5117ZM9.00003 17.999H10.5V16.5H9.00003V17.999ZM13.5 17.999H15V16.5H13.5V17.999ZM18 17.999H19.5V16.5H18V17.999ZM13.5 13.5H15V12H13.5V13.5ZM18 13.5H19.5V12H18V13.5ZM18 9H19.5V7.5H18V9Z" fill="var(--fill-0, black)"/>
<path id="Vector" d="M6.85659 26.9996C9.10659 26.9996 9.92709 26.8886 11.2936 25.8296" stroke="var(--stroke-0, black)" stroke-width="3" stroke-linecap="round" stroke-linejoin="round"/>
<path id="Vector_2" d="M15 24.0002V24.0152" stroke="var(--stroke-0, black)" stroke-width="3" stroke-linecap="round" stroke-linejoin="round"/>
</g>
</svg>
