<svg preserveAspectRatio="none" width="100%" height="100%" overflow="visible" style="display: block;" viewBox="0 0 46 40.2442" fill="none" xmlns="http://www.w3.org/2000/svg">
<path id="Vector" d="M43.9499 24.9493C43.0954 26.0143 42.0079 26.8766 40.7679 27.4722C39.528 28.0679 38.1674 28.3816 36.7872 28.3902H20.5529C19.8623 28.3901 19.1994 28.6573 18.7077 29.1338C18.2161 29.6104 17.9353 30.258 17.9261 30.9364V36.5621L19.8174 33.7751C19.9543 33.6081 20.1497 33.4974 20.3653 33.4646C20.5808 33.4317 20.8012 33.4792 20.983 33.5976C21.1649 33.716 21.2952 33.8968 21.3485 34.1047C21.4018 34.3125 21.3741 34.5324 21.271 34.7213L17.7685 39.8825C17.6961 39.9882 17.6003 40.0764 17.4883 40.1405C17.3685 40.2085 17.2326 40.2442 17.0942 40.2442C16.9559 40.2442 16.82 40.2085 16.7002 40.1405C16.6199 40.0894 16.5489 40.0254 16.49 39.9513L12.9875 34.7901C12.8844 34.6012 12.8567 34.3813 12.91 34.1735C12.9633 33.9656 13.0936 33.7848 13.2755 33.6664C13.4573 33.548 13.6776 33.5006 13.8932 33.5334C14.1089 33.5662 14.3042 33.677 14.441 33.8439L16.1748 36.5793V30.9364C16.1718 30.3668 16.2849 29.8024 16.5075 29.2765C16.7301 28.7505 17.0576 28.2737 17.4708 27.874C17.8783 27.4787 18.3629 27.1683 18.8956 26.9614C19.4282 26.7544 19.9979 26.6553 20.5705 26.6698H36.7872C37.9014 26.672 39.002 26.4289 40.0082 25.9586C41.0143 25.4882 41.9004 24.8024 42.6014 23.9515C43.3055 23.0911 43.8047 22.0866 44.0623 21.0119C44.3199 19.9373 44.3293 18.8196 44.0899 17.7409C43.6938 15.9403 42.6093 14.3576 41.0603 13.3195C39.9332 12.5587 38.6145 12.1177 37.249 12.0448C35.8835 11.972 34.524 12.2701 33.3197 12.9065C32.8696 15.7635 31.3057 18.3363 28.959 20.0806C28.867 20.1484 28.7623 20.1977 28.651 20.2258C28.5396 20.2538 28.4237 20.26 28.3098 20.244C28.196 20.228 28.0864 20.1902 27.9876 20.1326C27.8886 20.0751 27.8021 19.9989 27.7332 19.9086C27.6641 19.8182 27.6139 19.7153 27.5854 19.606C27.5569 19.4965 27.5505 19.3827 27.5668 19.2708C27.5831 19.1589 27.6216 19.0514 27.6802 18.9542C27.7387 18.857 27.8163 18.7721 27.9082 18.7043C28.9479 17.933 29.8164 16.9616 30.4608 15.8494C31.1052 14.7371 31.5118 13.5075 31.656 12.2356C31.6797 11.8919 31.6797 11.547 31.656 11.2033C31.6896 9.29206 31.1179 7.41781 30.0198 5.83975C28.9217 4.26171 27.3515 3.05789 25.5266 2.39485C24.0523 1.86074 22.4684 1.68505 20.9101 1.88278C19.3518 2.0805 17.8653 2.64577 16.5776 3.53032C15.3577 4.41299 14.3679 5.56686 13.6891 6.8975C13.0103 8.22818 12.6619 9.69778 12.6723 11.1862C12.7 11.337 12.6906 11.4922 12.6449 11.6388C12.5992 11.7855 12.5185 11.9193 12.4096 12.0291C12.3049 12.1357 12.1749 12.2151 12.0312 12.2601C11.8875 12.3052 11.7347 12.3145 11.5865 12.2872C10.6217 12.0148 9.61079 11.9361 8.61428 12.0558C7.61784 12.1755 6.65605 12.491 5.78634 12.9836C4.91663 13.4762 4.1568 14.1358 3.55215 14.9231C2.94749 15.7103 2.51039 16.6092 2.2669 17.5659C2.02342 18.5228 1.97854 19.5179 2.13493 20.4921C2.29133 21.4662 2.64579 22.3996 3.1772 23.2362C3.70861 24.0729 4.40608 24.796 5.22803 25.3623C6.04998 25.9285 6.97957 26.3264 7.96139 26.5321H11.8317C12.5302 26.5166 13.198 26.2469 13.7055 25.7751C13.943 25.53 14.1286 25.2412 14.2519 24.9253C14.3751 24.6093 14.4334 24.2725 14.4236 23.9343V18.3258L12.5322 21.1301C12.4746 21.2355 12.3952 21.3281 12.2991 21.4017C12.2031 21.4753 12.0924 21.5284 11.9743 21.5576C11.8562 21.5868 11.7331 21.5915 11.613 21.5713C11.4929 21.5512 11.3785 21.5066 11.2769 21.4405C11.1753 21.3744 11.0889 21.2882 11.0232 21.1874C10.9575 21.0866 10.9139 20.9735 10.8953 20.8552C10.8766 20.7369 10.8832 20.6161 10.9149 20.5005C10.9464 20.3849 11.0022 20.2771 11.0787 20.1839L14.5812 15.0226C14.659 14.9161 14.7615 14.8293 14.8803 14.7693C14.9991 14.7095 15.1307 14.6783 15.2642 14.6783C15.3976 14.6783 15.5292 14.7095 15.648 14.7693C15.7668 14.8293 15.8693 14.9161 15.9471 15.0226L19.4496 20.1839C19.5261 20.2771 19.5819 20.3849 19.6135 20.5005C19.6451 20.6161 19.6517 20.7369 19.6331 20.8552C19.6144 20.9735 19.5709 21.0866 19.5051 21.1874C19.4394 21.2882 19.353 21.3744 19.2514 21.4405C19.1499 21.5066 19.0354 21.5512 18.9153 21.5713C18.7952 21.5915 18.6722 21.5868 18.554 21.5576C18.4359 21.5284 18.3252 21.4753 18.2292 21.4017C18.1331 21.3281 18.0537 21.2355 17.9961 21.1301L16.1748 18.3258V23.9343C16.1755 24.501 16.0612 25.0621 15.8387 25.585C15.6162 26.1078 15.2899 26.5818 14.8789 26.9795C14.0385 27.7698 12.9249 28.2185 11.7616 28.2353H7.78625H7.59363C5.17841 27.8019 3.03741 26.4436 1.6416 24.4594C0.245794 22.4752 -0.290476 20.0275 0.150764 17.6549C0.592004 15.2822 1.97461 13.1789 3.99442 11.8077C6.01424 10.4365 8.50579 9.90966 10.9211 10.3431C11.0481 8.6188 11.5817 6.94715 12.4796 5.46023C13.3775 3.97334 14.6151 2.71198 16.0947 1.77583C17.5742 0.839674 19.2551 0.254391 21.0044 0.066227C22.7539 -0.121936 24.5238 0.0921791 26.1745 0.691652C28.3032 1.45596 30.1433 2.84099 31.4485 4.66123C32.7537 6.48147 33.4615 8.65001 33.4773 10.8764C34.8806 10.3462 36.3948 10.1615 37.8876 10.3384C39.3803 10.5154 40.8063 11.0486 42.041 11.8915C43.9653 13.1795 45.3131 15.1439 45.8062 17.3796C46.0848 18.6977 46.0628 20.0601 45.7418 21.3689C45.4209 22.6777 44.8089 23.9005 43.9499 24.9493Z" fill="var(--fill-0, #FF5722)"/>
</svg>
